<svg width="24" height="24" viewBox="0 0 24 24" fill="none" xmlns="http://www.w3.org/2000/svg">
<path d="M6 10V12C6 15.3137 8.68629 18 12 18C15.3137 18 18 15.3137 18 12V11V10C18 6.68629 15.3137 4 12 4C8.68629 4 6 6.68629 6 10Z" stroke="#252F3D" stroke-width="1.5" stroke-linecap="round"/>
<path d="M20.6933 14.3294C20.1806 16.2431 19.0507 17.9341 17.4789 19.1402C15.9071 20.3463 13.9812 21 12 21C10.0188 21 8.09295 20.3463 6.52115 19.1402C4.94935 17.9341 3.81944 16.2431 3.30667 14.3294" stroke="#252F3D" stroke-width="1.5" stroke-linecap="round"/>
<path d="M15 12L15 10" stroke="#252F3D" stroke-width="1.5" stroke-linecap="round"/>
<path d="M12 13L12 9" stroke="#252F3D" stroke-width="1.5" stroke-linecap="round"/>
<path d="M9 12L9 10" stroke="#252F3D" stroke-width="1.5" stroke-linecap="round"/>
</svg>
